<svg xmlns="http://www.w3.org/2000/svg" viewBox="0 0 504.489 504.489" width="30" height="30">
  <path fill="#36a6ce" d="M7.5 67.366h369.757v369.757H7.5z"/>
  <path fill="#e5e9ea" d="M333.165 111.458H51.592v91.097h57.971v-33.126h53.83V335.06h-35.801v57.971h129.572V335.06h-35.8V169.429h53.83v33.126h57.971v-91.097z"/>
  <path fill="#e5e9ea" d="M315.859 288.778l-30.272 30.272 73.787 13.243 56.76 56.76 81.355-81.355-100.275-100.275z"/>
  <path fill="#53bce9" d="M497.5 307.699l-81.366 81.354-56.751-56.751-73.795-13.245 30.275-30.275h162.72z"/>
  <g>
    <path d="M277.589 429.623H15V74.866h354.757v124.913c0 4.142 3.357 7.5 7.5 7.5s7.5-3.358 7.5-7.5V67.366c0-4.142-3.357-7.5-7.5-7.5H7.5c-4.142 0-7.5 3.358-7.5 7.5v369.757c0 4.142 3.358 7.5 7.5 7.5h270.089c4.143 0 7.5-3.358 7.5-7.5s-3.357-7.5-7.5-7.5zM377.257 374.27c-4.143 0-7.5 3.358-7.5 7.5v47.853h-67.166c-4.143 0-7.5 3.358-7.5 7.5s3.357 7.5 7.5 7.5h74.666c4.143 0 7.5-3.358 7.5-7.5V381.77c0-4.142-3.357-7.5-7.5-7.5z"/>
    <path d="M275.195 210.055h57.971c4.143 0 7.5-3.358 7.5-7.5v-91.097c0-4.142-3.357-7.5-7.5-7.5H116.601c-4.142 0-7.5 3.358-7.5 7.5s3.358 7.5 7.5 7.5h209.065v76.097h-42.971v-25.626c0-4.142-3.357-7.5-7.5-7.5h-53.831c-4.142 0-7.5 3.358-7.5 7.5V335.06c0 4.142 3.358 7.5 7.5 7.5h28.301v42.971H135.092V342.56h28.301c4.142 0 7.5-3.358 7.5-7.5V169.429c0-4.142-3.358-7.5-7.5-7.5h-53.83c-4.142 0-7.5 3.358-7.5 7.5v25.626H59.092v-76.098h32.507c4.142 0 7.5-3.358 7.5-7.5s-3.358-7.5-7.5-7.5H51.592c-1.989 0-3.897.79-5.303 2.197-1.407 1.406-2.197 3.314-2.197 5.303v91.098c0 4.142 3.358 7.5 7.5 7.5h57.971c4.142 0 7.5-3.358 7.5-7.5v-25.626h38.83V327.56h-28.301c-4.142 0-7.5 3.358-7.5 7.5v57.971c0 4.142 3.358 7.5 7.5 7.5h129.572c4.143 0 7.5-3.358 7.5-7.5V335.06c0-4.142-3.357-7.5-7.5-7.5h-28.301V176.929h38.831v25.626c.001 4.143 3.358 7.5 7.501 7.5z"/>
    <path d="M502.439 302.748l-17.15-17.15-6.429-61.654c-1.228-11.767-8.916-21.533-20.066-25.486-11.148-3.954-23.273-1.214-31.641 7.152l-10.926 10.926-14.063-14.063c-2.734-2.733-7.166-2.733-9.9 0l-81.355 81.355-30.272 30.272c-1.843 1.843-2.509 4.558-1.729 7.044.78 2.487 2.878 4.334 5.443 4.795l71.626 12.856 55.206 55.207c1.313 1.313 3.094 2.05 4.95 2.05s3.637-.737 4.95-2.05l81.355-81.355c1.313-1.313 2.05-3.093 2.05-4.95s-.737-3.637-2.049-4.949zm-65.387-87.239c4.579-4.579 10.955-6.022 17.063-3.857 6.104 2.165 10.149 7.302 10.821 13.744l4.639 44.488-43.448-43.448 10.925-10.927zm-20.919 163.644l-51.809-51.81c-1.011-1.011-2.307-1.688-3.714-1.94l-60.601-10.877 97.204-97.204 90.375 90.375-71.455 71.456z"/>
    <path d="M339.787 288.775c0 3.866 3.134 7 7 7h101.865c3.866 0 7-3.134 7-7s-3.134-7-7-7H346.787c-3.867 0-7 3.134-7 7z"/>
  </g>
</svg>