<svg xmlns="http://www.w3.org/2000/svg" viewBox="0 0 504.488 504.488" width="30" height="30">
  <path fill="#e5e9ea" d="M7.5 87.596h369.757v369.757H7.5z"/>
  <path fill="#36a6ce" d="M333.165 131.688v-.001H51.592v91.098h57.971v-33.127h53.83V355.29h-35.801v57.971h129.572V355.29h-35.8V189.658h53.83v33.127h57.971v-91.097z"/>
  <path fill="#e5e9ea" d="M315.859 131.736l-30.272 30.272 73.787 13.244 56.76 56.759 81.355-81.355L397.214 50.381z"/>
  <path fill="#53bce9" d="M497.5 150.658l-81.366 81.353-56.751-56.751-73.795-13.244 30.275-30.275h162.72z"/>
  <g>
    <path d="M308.613 449.853H15V95.096h313.09c4.142 0 7.5-3.358 7.5-7.5s-3.358-7.5-7.5-7.5H7.5c-4.142 0-7.5 3.358-7.5 7.5v369.757c0 4.142 3.358 7.5 7.5 7.5h301.113c4.142 0 7.5-3.358 7.5-7.5s-3.358-7.5-7.5-7.5zM377.257 219.009c-4.142 0-7.5 3.358-7.5 7.5v223.344h-36.142c-4.142 0-7.5 3.358-7.5 7.5s3.358 7.5 7.5 7.5h43.642c4.142 0 7.5-3.358 7.5-7.5V226.509c0-4.142-3.358-7.5-7.5-7.5z"/>
    <path d="M275.194 182.158h-53.831c-4.142 0-7.5 3.358-7.5 7.5V355.29c0 4.142 3.358 7.5 7.5 7.5h28.301v42.971H135.092V362.79h28.301c4.142 0 7.5-3.358 7.5-7.5v-73.781c0-4.142-3.358-7.5-7.5-7.5s-7.5 3.358-7.5 7.5v66.281h-28.301c-4.142 0-7.5 3.358-7.5 7.5v57.971c0 4.142 3.358 7.5 7.5 7.5h129.572c4.142 0 7.5-3.358 7.5-7.5V355.29c0-4.142-3.358-7.5-7.5-7.5h-28.301V197.158h38.831v25.626c0 4.142 3.358 7.5 7.5 7.5h57.971c4.142 0 7.5-3.358 7.5-7.5V192.01c0-4.142-3.358-7.5-7.5-7.5s-7.5 3.358-7.5 7.5v23.274h-42.971v-25.626c0-4.142-3.358-7.5-7.5-7.5z"/>
    <path d="M290.995 131.687c0-4.142-3.358-7.5-7.5-7.5H51.592c-1.989 0-3.897.79-5.303 2.197-1.407 1.406-2.197 3.314-2.197 5.303v91.097c0 4.142 3.358 7.5 7.5 7.5h57.971c4.142 0 7.5-3.358 7.5-7.5v-25.626h38.83v59.349c0 4.142 3.358 7.5 7.5 7.5s7.5-3.358 7.5-7.5v-66.849c0-4.142-3.358-7.5-7.5-7.5h-53.83c-4.142 0-7.5 3.358-7.5 7.5v25.626H59.092v-76.097h224.403c4.142 0 7.5-3.358 7.5-7.5zM502.438 145.707l-17.148-17.148-6.429-61.656c-1.228-11.767-8.917-21.533-20.067-25.486-11.149-3.954-23.273-1.213-31.639 7.153l-10.927 10.927-14.063-14.063c-1.313-1.313-3.093-2.05-4.95-2.05s-3.637.738-4.95 2.05L280.638 157.058c-1.843 1.843-2.509 4.558-1.729 7.044s2.877 4.335 5.442 4.795l71.626 12.855 55.207 55.207c1.367 1.367 3.158 2.05 4.95 2.05s3.583-.684 4.95-2.05l81.354-81.354c2.734-2.732 2.734-7.165 0-9.898zm-65.385-87.239c4.579-4.58 10.958-6.021 17.062-3.857 6.104 2.164 10.149 7.302 10.821 13.743l4.639 44.489-43.448-43.449 10.926-10.926zm-20.919 163.643l-51.81-51.81c-1.011-1.011-2.306-1.688-3.713-1.94l-60.601-10.877 97.204-97.204 90.375 90.375-71.455 71.456z"/>
    <path d="M339.787 131.733c0 3.866 3.134 7 7 7h101.865c3.866 0 7-3.134 7-7s-3.134-7-7-7H346.787c-3.867 0-7 3.135-7 7z"/>
  </g>
</svg>